<?xml version="1.0" encoding="UTF-8" standalone="no"?>
<svg
   xmlns:dc="http://purl.org/dc/elements/1.1/"
   xmlns:cc="http://creativecommons.org/ns#"
   xmlns:rdf="http://www.w3.org/1999/02/22-rdf-syntax-ns#"
   xmlns:svg="http://www.w3.org/2000/svg"
   xmlns="http://www.w3.org/2000/svg"
   viewBox="0 0 593.33331 74.666664"
   height="74.666664"
   width="593.33331"
   xml:space="preserve"
   id="svg2"
   version="1.1"><metadata
     id="metadata8"><rdf:RDF><cc:Work
         rdf:about=""><dc:format>image/svg+xml</dc:format><dc:type
           rdf:resource="http://purl.org/dc/dcmitype/StillImage" /></cc:Work></rdf:RDF></metadata><defs
     id="defs6"><clipPath
       id="clipPath20"
       clipPathUnits="userSpaceOnUse"><path
         style="clip-rule:evenodd"
         id="path18"
         d="M 4214.45,167.293 V 48.5 c 0,-19.9727 -16.29,-36.2578 -36.26,-36.2578 H 4050.5 c -19.97,0 -36.26,16.2851 -36.26,36.2578 v 459.293 c 0,19.973 16.29,36.258 36.26,36.258 h 190.89 c 37.98,0 76.29,-6.199 110.46,-23.43 31.03,-15.641 56.38,-38.281 73.54,-68.586 16.95,-29.953 24.24,-63.082 24.24,-97.34 0,-33.125 -7.62,-64.761 -23.86,-93.656 -16.95,-30.176 -42.14,-52.871 -72.62,-69.004 -34.37,-18.199 -73.2,-24.742 -111.76,-24.742 z m -523.56,340.5 V 241.336 c 0,-10.551 1.36,-25.324 8.57,-33.77 5.61,-6.55 16.96,-7.496 24.88,-7.496 8.64,0 19.7,1.141 25.79,8.118 7.45,8.535 8.96,22.328 8.96,33.148 v 266.457 c 0,19.973 16.29,36.258 36.26,36.258 h 127.69 c 19.98,0 36.26,-16.285 36.26,-36.258 V 241.336 c 0,-44.391 -8.87,-88.027 -31.86,-126.434 -21.25,-35.5036 -50.64,-62.8668 -87.81,-81.0504 -36.97,-18.0938 -76.83,-26.17191 -117.9,-26.17191 -40.6,0 -80.18,7.89061 -116.5,26.45311 -36.06,18.4336 -64.15,45.9492 -84.1,81.1912 -21.78,38.473 -29.8,82.188 -29.8,126.012 v 266.457 c 0,19.973 16.29,36.258 36.26,36.258 h 127.04 c 19.97,0 36.26,-16.285 36.26,-36.258 z M 3065.78,369.902 V 48.5 c 0,-19.9727 -16.29,-36.2578 -36.26,-36.2578 h -127.69 c -19.97,0 -36.26,16.2851 -36.26,36.2578 v 321.402 h -84.91 c -19.97,0 -36.26,16.289 -36.26,36.258 v 101.633 c 0,19.973 16.29,36.258 36.26,36.258 H 3152 c 19.97,0 36.25,-16.285 36.25,-36.258 V 406.16 c 0,-19.969 -16.28,-36.258 -36.25,-36.258 z M 2712.31,507.793 V 48.5 c 0,-19.9727 -16.29,-36.2578 -36.26,-36.2578 h -127.69 c -19.97,0 -36.25,16.2851 -36.25,36.2578 v 459.293 c 0,19.973 16.28,36.258 36.25,36.258 h 127.69 c 19.97,0 36.26,-16.285 36.26,-36.258 z M 1909.18,136.785 V 48.5 c 0,-19.9727 -16.29,-36.2578 -36.26,-36.2578 h -127.69 c -19.97,0 -36.26,16.2851 -36.26,36.2578 v 459.293 c 0,19.973 16.29,36.258 36.26,36.258 h 127.69 c 19.97,0 36.26,-16.285 36.26,-36.258 v -85.688 l 76.99,106.879 c 7.04,9.766 17.39,15.067 29.42,15.067 h 147.23 c 14.11,0 26.2,-7.488 32.47,-20.121 6.28,-12.625 4.96,-26.782 -3.56,-38.028 L 2039.49,284.871 2200.31,70.2422 c 8.44,-11.2617 9.71,-25.3789 3.41,-37.9649 -6.29,-12.582 -18.35,-20.0351 -32.43,-20.0351 h -154.4 c -12.07,0 -22.46,5.3437 -29.49,15.1641 z M 1395.71,7.67969 c -48.3,0 -94.15,11.31641 -136.29,34.92581 -41.74,23.3828 -74.96,56.0547 -99.21,97.3005 -25.23,42.922 -36.59,90.254 -36.59,139.867 0,49.614 11.36,96.957 36.59,139.879 24.25,41.25 57.51,73.86 99.36,97.047 42.14,23.364 87.96,34.52 136.14,34.52 48.31,0 94.34,-11.028 136.55,-34.563 41.68,-23.238 74.71,-55.89 98.71,-97.14 24.96,-42.899 36.19,-90.219 36.19,-139.743 0,-49.519 -11.24,-96.839 -36.19,-139.73 -24.06,-41.3555 -57.22,-74.0508 -98.96,-97.4375 -42.14,-23.6094 -87.99,-34.92581 -136.3,-34.92581 z m -569.706,0 c -48.305,0 -94.149,11.31641 -136.293,34.92581 -41.738,23.3828 -74.965,56.0547 -99.211,97.3005 -25.23,42.922 -36.59,90.254 -36.59,139.867 0,49.614 11.356,96.954 36.59,139.879 24.25,41.25 57.512,73.86 99.355,97.051 42.149,23.36 87.961,34.516 136.149,34.516 48.301,0 94.336,-11.028 136.543,-34.563 41.683,-23.238 74.703,-55.89 98.703,-97.14 24.96,-42.899 36.2,-90.219 36.2,-139.743 0,-49.519 -11.24,-96.839 -36.2,-139.73 C 1037.19,98.6875 1004.04,65.9922 962.293,42.6055 920.152,18.9961 874.305,7.67969 826.004,7.67969 Z M 3.12109,279.121 c 0,48.293 9.76951,95.137 32.60551,137.926 22.0781,41.363 53.7734,74.004 94.5274,97.183 42.379,24.11 89.266,34.375 137.793,34.375 61.051,0 118.57,-15.707 166.992,-53.636 47.367,-37.106 76.055,-87.024 88.66,-145.688 2.383,-11.082 -0.125,-21.593 -7.246,-30.406 -7.121,-8.812 -16.875,-13.473 -28.203,-13.473 H 350.793 c -14.332,0 -26.602,7.758 -32.75,20.7 -4.758,10.007 -11.25,18.648 -20.715,24.578 -9.5,5.957 -20.101,8.148 -31.23,8.148 -17.477,0 -31.493,-4.957 -42.86,-18.574 -14.113,-16.902 -17.953,-39.723 -17.953,-61.133 0,-21.5 3.758,-44.769 17.949,-61.769 11.375,-13.618 25.379,-18.586 42.864,-18.586 11.132,0 21.726,2.191 31.23,8.148 9.465,5.93 15.957,14.57 20.715,24.578 6.148,12.946 18.418,20.696 32.75,20.696 H 488.25 c 11.328,0 21.082,-4.657 28.203,-13.469 7.121,-8.813 9.629,-19.328 7.246,-30.406 C 511.094,149.652 482.406,99.7344 435.039,62.6328 386.617,24.6992 329.102,8.98438 268.047,8.98438 219.516,8.98438 172.637,19.2695 130.254,43.375 89.5,66.5508 57.8047,99.1914 35.7266,140.555 12.7969,183.516 3.12109,230.652 3.12109,279.121 Z M 4214.45,368.598 v -27.157 h 14.56 c 2.73,0 13.97,0.567 16.08,2.875 1.38,1.512 1.73,8.559 1.73,10.379 0,1.996 -0.36,9.364 -1.89,11.012 -2.17,2.344 -13.13,2.891 -15.92,2.891 z M 1395.71,198.766 c 19.51,0 36.81,4.785 50.08,19.738 14.96,16.848 19.21,39.344 19.21,61.269 0,21.895 -3.99,45.29 -19.09,62.118 -13.28,14.82 -30.67,19.543 -50.2,19.543 -19.43,0 -37.18,-4.496 -50.39,-19.387 -14.97,-16.883 -18.89,-40.426 -18.89,-62.274 0,-21.761 4,-44.82 18.89,-61.605 13.21,-14.895 30.95,-19.402 50.39,-19.402 z m -569.706,0 c 19.512,0 36.801,4.785 50.078,19.738 14.957,16.848 19.203,39.344 19.203,61.269 0,21.895 -3.984,45.29 -19.082,62.118 -13.293,14.82 -30.676,19.543 -50.199,19.543 -19.438,0 -37.195,-4.493 -50.399,-19.387 -14.964,-16.879 -18.878,-40.43 -18.878,-62.274 0,-21.757 3.996,-44.824 18.878,-61.605 13.208,-14.898 30.954,-19.402 50.399,-19.402 z" /></clipPath><linearGradient
       id="linearGradient26"
       spreadMethod="pad"
       gradientTransform="matrix(10,0,0,10,-750,-3930)"
       gradientUnits="userSpaceOnUse"
       y2="387.659"
       x2="363.43201"
       y1="491.85199"
       x1="363.43201"><stop
         id="stop22"
         offset="0"
         style="stop-opacity:1;stop-color:#040505" /><stop
         id="stop24"
         offset="1"
         style="stop-opacity:1;stop-color:#231f20" /></linearGradient><clipPath
       id="clipPath36"
       clipPathUnits="userSpaceOnUse"><path
         style="clip-rule:evenodd"
         id="path34"
         d="m 4413.37,354.695 c 0,-27.797 -6.4,-53.093 -19.21,-75.894 -12.81,-22.801 -32.14,-41.047 -57.98,-54.723 -25.84,-13.683 -57.44,-20.527 -94.79,-20.527 h -63.2 V 48.5 H 4050.5 v 459.293 h 190.89 c 36.91,0 68.29,-6.52 94.14,-19.547 25.84,-13.027 45.27,-31.051 58.3,-54.07 13.03,-23.02 19.54,-49.512 19.54,-79.481 z m -184.36,-49.511 c 36.05,0 54.07,16.504 54.07,49.511 0,33.442 -18.02,50.16 -54.07,50.16 h -50.82 V 305.184 Z M 3654.63,507.793 V 241.336 c 0,-24.758 5.76,-43.863 17.27,-57.328 11.51,-13.465 28.99,-20.195 52.44,-20.195 23.45,0 41.16,6.843 53.1,20.527 11.94,13.676 17.91,32.676 17.91,56.996 v 266.457 h 127.69 V 241.336 c 0,-42.129 -8.9,-78.066 -26.71,-107.813 -17.81,-29.757 -42.02,-52.1207 -72.63,-67.105 -30.63,-14.9844 -64.61,-22.4805 -101.97,-22.4805 -37.35,0 -70.68,7.4961 -100,22.4805 -29.31,14.9843 -52.33,37.242 -69.05,66.773 -16.73,29.532 -25.09,65.582 -25.09,108.145 v 266.457 z m -502.63,0 V 406.16 H 3029.52 V 48.5 h -127.69 v 357.66 h -121.17 v 101.633 z m -475.95,0 V 48.5 H 2548.36 V 507.793 Z M 2016.89,48.5 1872.92,249.809 V 48.5 h -127.69 v 459.293 h 127.69 V 309.742 l 142.67,198.051 h 147.23 L 1994.09,284.988 2171.29,48.5 Z m -621.18,-4.5625 c -42.99,0 -82.52,10.1016 -118.57,30.3008 -36.05,20.1914 -64.6,48.2027 -85.67,84.0387 -21.06,35.828 -31.59,76.328 -31.59,121.496 0,45.168 10.53,85.672 31.59,121.504 21.07,35.832 49.63,63.735 85.67,83.711 36.05,19.981 75.58,29.973 118.57,29.973 43.43,0 83.06,-9.992 118.9,-29.973 35.83,-19.976 64.18,-47.879 85.02,-83.711 20.85,-35.832 31.27,-76.332 31.27,-121.504 0,-45.168 -10.42,-85.668 -31.27,-121.496 -20.84,-35.836 -49.3,-63.8473 -85.34,-84.0387 -36.06,-20.1992 -75.58,-30.3008 -118.58,-30.3008 z m 0,118.5705 c 32.58,0 58.31,10.64 77.2,31.926 18.9,21.277 28.34,49.726 28.34,85.339 0,36.485 -9.44,65.258 -28.34,86.325 -18.89,21.066 -44.62,31.593 -77.2,31.593 -33,0 -58.84,-10.527 -77.52,-31.593 -18.68,-21.067 -28.01,-49.84 -28.01,-86.325 0,-36.05 9.33,-64.601 28.01,-85.66 18.68,-21.066 44.52,-31.605 77.52,-31.605 z M 826.004,43.9375 c -43,0 -82.524,10.1016 -118.57,30.3008 -36.047,20.1914 -64.61,48.2027 -85.676,84.0387 -21.059,35.828 -31.59,76.328 -31.59,121.496 0,45.168 10.531,85.672 31.59,121.504 21.066,35.832 49.629,63.735 85.676,83.711 36.046,19.981 75.574,29.973 118.57,29.973 43.43,0 83.059,-9.992 118.887,-29.973 35.839,-19.976 64.179,-47.879 85.019,-83.711 20.85,-35.832 31.27,-76.332 31.27,-121.504 0,-45.168 -10.42,-85.668 -31.27,-121.496 C 1009.07,122.441 980.621,94.4297 944.57,74.2383 908.523,54.0391 869.004,43.9375 826.004,43.9375 Z m 0,118.5705 c 32.574,0 58.301,10.64 77.191,31.926 18.899,21.277 28.348,49.726 28.348,85.339 0,36.485 -9.449,65.258 -28.348,86.325 -18.89,21.066 -44.617,31.593 -77.191,31.593 -33.012,0 -58.852,-10.527 -77.527,-31.593 -18.676,-21.067 -28.008,-49.84 -28.008,-86.325 0,-36.05 9.332,-64.601 28.008,-85.66 18.675,-21.066 44.515,-31.605 77.527,-31.605 z M 39.3789,279.121 c 0,45.172 9.4492,85.453 28.3359,120.856 18.8985,35.394 45.7232,62.972 80.4652,82.738 34.746,19.762 74.703,29.633 119.867,29.633 57.336,0 105.543,-15.301 144.633,-45.922 39.09,-30.621 64.281,-72.207 75.57,-124.766 H 350.793 c -8.258,17.379 -19.656,30.625 -34.211,39.746 -14.547,9.117 -31.375,13.68 -50.484,13.68 -29.535,0 -53.102,-10.531 -70.688,-31.594 -17.59,-21.066 -26.383,-49.191 -26.383,-84.371 0,-35.613 8.793,-63.949 26.383,-85.008 17.594,-21.066 41.153,-31.605 70.688,-31.605 19.109,0 35.937,4.562 50.484,13.68 14.555,9.121 25.953,22.371 34.211,39.742 H 488.25 C 476.961,163.375 451.77,121.793 412.68,91.1758 373.59,60.5508 325.383,45.2422 268.047,45.2422 222.883,45.2422 182.926,55.125 148.18,74.8906 113.438,94.6484 86.6133,122.227 67.7148,157.629 48.8281,193.02 39.3789,233.523 39.3789,279.121 Z" /></clipPath><linearGradient
       id="linearGradient42"
       spreadMethod="pad"
       gradientTransform="matrix(10,0,0,10,-750,-3930)"
       gradientUnits="userSpaceOnUse"
       y2="392.10001"
       x2="362.35901"
       y1="482.392"
       x1="362.35901"><stop
         id="stop38"
         offset="0"
         style="stop-opacity:1;stop-color:#b9d954" /><stop
         id="stop40"
         offset="1"
         style="stop-opacity:1;stop-color:#748c29" /></linearGradient></defs><g
     transform="matrix(1.3333333,0,0,-1.3333333,0,74.666667)"
     id="g10"><g
       transform="scale(0.1)"
       id="g12"><g
         id="g14"><g
           clip-path="url(#clipPath20)"
           id="g16"><path
             id="path28"
             style="fill:url(#linearGradient26);fill-opacity:1;fill-rule:nonzero;stroke:none"
             d="M 4214.45,167.293 V 48.5 c 0,-19.9727 -16.29,-36.2578 -36.26,-36.2578 H 4050.5 c -19.97,0 -36.26,16.2851 -36.26,36.2578 v 459.293 c 0,19.973 16.29,36.258 36.26,36.258 h 190.89 c 37.98,0 76.29,-6.199 110.46,-23.43 31.03,-15.641 56.38,-38.281 73.54,-68.586 16.95,-29.953 24.24,-63.082 24.24,-97.34 0,-33.125 -7.62,-64.761 -23.86,-93.656 -16.95,-30.176 -42.14,-52.871 -72.62,-69.004 -34.37,-18.199 -73.2,-24.742 -111.76,-24.742 z m -523.56,340.5 V 241.336 c 0,-10.551 1.36,-25.324 8.57,-33.77 5.61,-6.55 16.96,-7.496 24.88,-7.496 8.64,0 19.7,1.141 25.79,8.118 7.45,8.535 8.96,22.328 8.96,33.148 v 266.457 c 0,19.973 16.29,36.258 36.26,36.258 h 127.69 c 19.98,0 36.26,-16.285 36.26,-36.258 V 241.336 c 0,-44.391 -8.87,-88.027 -31.86,-126.434 -21.25,-35.5036 -50.64,-62.8668 -87.81,-81.0504 -36.97,-18.0938 -76.83,-26.17191 -117.9,-26.17191 -40.6,0 -80.18,7.89061 -116.5,26.45311 -36.06,18.4336 -64.15,45.9492 -84.1,81.1912 -21.78,38.473 -29.8,82.188 -29.8,126.012 v 266.457 c 0,19.973 16.29,36.258 36.26,36.258 h 127.04 c 19.97,0 36.26,-16.285 36.26,-36.258 z M 3065.78,369.902 V 48.5 c 0,-19.9727 -16.29,-36.2578 -36.26,-36.2578 h -127.69 c -19.97,0 -36.26,16.2851 -36.26,36.2578 v 321.402 h -84.91 c -19.97,0 -36.26,16.289 -36.26,36.258 v 101.633 c 0,19.973 16.29,36.258 36.26,36.258 H 3152 c 19.97,0 36.25,-16.285 36.25,-36.258 V 406.16 c 0,-19.969 -16.28,-36.258 -36.25,-36.258 z M 2712.31,507.793 V 48.5 c 0,-19.9727 -16.29,-36.2578 -36.26,-36.2578 h -127.69 c -19.97,0 -36.25,16.2851 -36.25,36.2578 v 459.293 c 0,19.973 16.28,36.258 36.25,36.258 h 127.69 c 19.97,0 36.26,-16.285 36.26,-36.258 z M 1909.18,136.785 V 48.5 c 0,-19.9727 -16.29,-36.2578 -36.26,-36.2578 h -127.69 c -19.97,0 -36.26,16.2851 -36.26,36.2578 v 459.293 c 0,19.973 16.29,36.258 36.26,36.258 h 127.69 c 19.97,0 36.26,-16.285 36.26,-36.258 v -85.688 l 76.99,106.879 c 7.04,9.766 17.39,15.067 29.42,15.067 h 147.23 c 14.11,0 26.2,-7.488 32.47,-20.121 6.28,-12.625 4.96,-26.782 -3.56,-38.028 L 2039.49,284.871 2200.31,70.2422 c 8.44,-11.2617 9.71,-25.3789 3.41,-37.9649 -6.29,-12.582 -18.35,-20.0351 -32.43,-20.0351 h -154.4 c -12.07,0 -22.46,5.3437 -29.49,15.1641 z M 1395.71,7.67969 c -48.3,0 -94.15,11.31641 -136.29,34.92581 -41.74,23.3828 -74.96,56.0547 -99.21,97.3005 -25.23,42.922 -36.59,90.254 -36.59,139.867 0,49.614 11.36,96.957 36.59,139.879 24.25,41.25 57.51,73.86 99.36,97.047 42.14,23.364 87.96,34.52 136.14,34.52 48.31,0 94.34,-11.028 136.55,-34.563 41.68,-23.238 74.71,-55.89 98.71,-97.14 24.96,-42.899 36.19,-90.219 36.19,-139.743 0,-49.519 -11.24,-96.839 -36.19,-139.73 -24.06,-41.3555 -57.22,-74.0508 -98.96,-97.4375 -42.14,-23.6094 -87.99,-34.92581 -136.3,-34.92581 z m -569.706,0 c -48.305,0 -94.149,11.31641 -136.293,34.92581 -41.738,23.3828 -74.965,56.0547 -99.211,97.3005 -25.23,42.922 -36.59,90.254 -36.59,139.867 0,49.614 11.356,96.954 36.59,139.879 24.25,41.25 57.512,73.86 99.355,97.051 42.149,23.36 87.961,34.516 136.149,34.516 48.301,0 94.336,-11.028 136.543,-34.563 41.683,-23.238 74.703,-55.89 98.703,-97.14 24.96,-42.899 36.2,-90.219 36.2,-139.743 0,-49.519 -11.24,-96.839 -36.2,-139.73 C 1037.19,98.6875 1004.04,65.9922 962.293,42.6055 920.152,18.9961 874.305,7.67969 826.004,7.67969 Z M 3.12109,279.121 c 0,48.293 9.76951,95.137 32.60551,137.926 22.0781,41.363 53.7734,74.004 94.5274,97.183 42.379,24.11 89.266,34.375 137.793,34.375 61.051,0 118.57,-15.707 166.992,-53.636 47.367,-37.106 76.055,-87.024 88.66,-145.688 2.383,-11.082 -0.125,-21.593 -7.246,-30.406 -7.121,-8.812 -16.875,-13.473 -28.203,-13.473 H 350.793 c -14.332,0 -26.602,7.758 -32.75,20.7 -4.758,10.007 -11.25,18.648 -20.715,24.578 -9.5,5.957 -20.101,8.148 -31.23,8.148 -17.477,0 -31.493,-4.957 -42.86,-18.574 -14.113,-16.902 -17.953,-39.723 -17.953,-61.133 0,-21.5 3.758,-44.769 17.949,-61.769 11.375,-13.618 25.379,-18.586 42.864,-18.586 11.132,0 21.726,2.191 31.23,8.148 9.465,5.93 15.957,14.57 20.715,24.578 6.148,12.946 18.418,20.696 32.75,20.696 H 488.25 c 11.328,0 21.082,-4.657 28.203,-13.469 7.121,-8.813 9.629,-19.328 7.246,-30.406 C 511.094,149.652 482.406,99.7344 435.039,62.6328 386.617,24.6992 329.102,8.98438 268.047,8.98438 219.516,8.98438 172.637,19.2695 130.254,43.375 89.5,66.5508 57.8047,99.1914 35.7266,140.555 12.7969,183.516 3.12109,230.652 3.12109,279.121 Z M 4214.45,368.598 v -27.157 h 14.56 c 2.73,0 13.97,0.567 16.08,2.875 1.38,1.512 1.73,8.559 1.73,10.379 0,1.996 -0.36,9.364 -1.89,11.012 -2.17,2.344 -13.13,2.891 -15.92,2.891 z M 1395.71,198.766 c 19.51,0 36.81,4.785 50.08,19.738 14.96,16.848 19.21,39.344 19.21,61.269 0,21.895 -3.99,45.29 -19.09,62.118 -13.28,14.82 -30.67,19.543 -50.2,19.543 -19.43,0 -37.18,-4.496 -50.39,-19.387 -14.97,-16.883 -18.89,-40.426 -18.89,-62.274 0,-21.761 4,-44.82 18.89,-61.605 13.21,-14.895 30.95,-19.402 50.39,-19.402 z m -569.706,0 c 19.512,0 36.801,4.785 50.078,19.738 14.957,16.848 19.203,39.344 19.203,61.269 0,21.895 -3.984,45.29 -19.082,62.118 -13.293,14.82 -30.676,19.543 -50.199,19.543 -19.438,0 -37.195,-4.493 -50.399,-19.387 -14.964,-16.879 -18.878,-40.43 -18.878,-62.274 0,-21.757 3.996,-44.824 18.878,-61.605 13.208,-14.898 30.954,-19.402 50.399,-19.402" /></g></g><g
         id="g30"><g
           clip-path="url(#clipPath36)"
           id="g32"><path
             id="path44"
             style="fill:url(#linearGradient42);fill-opacity:1;fill-rule:nonzero;stroke:none"
             d="m 4413.37,354.695 c 0,-27.797 -6.4,-53.093 -19.21,-75.894 -12.81,-22.801 -32.14,-41.047 -57.98,-54.723 -25.84,-13.683 -57.44,-20.527 -94.79,-20.527 h -63.2 V 48.5 H 4050.5 v 459.293 h 190.89 c 36.91,0 68.29,-6.52 94.14,-19.547 25.84,-13.027 45.27,-31.051 58.3,-54.07 13.03,-23.02 19.54,-49.512 19.54,-79.481 z m -184.36,-49.511 c 36.05,0 54.07,16.504 54.07,49.511 0,33.442 -18.02,50.16 -54.07,50.16 h -50.82 V 305.184 Z M 3654.63,507.793 V 241.336 c 0,-24.758 5.76,-43.863 17.27,-57.328 11.51,-13.465 28.99,-20.195 52.44,-20.195 23.45,0 41.16,6.843 53.1,20.527 11.94,13.676 17.91,32.676 17.91,56.996 v 266.457 h 127.69 V 241.336 c 0,-42.129 -8.9,-78.066 -26.71,-107.813 -17.81,-29.757 -42.02,-52.1207 -72.63,-67.105 -30.63,-14.9844 -64.61,-22.4805 -101.97,-22.4805 -37.35,0 -70.68,7.4961 -100,22.4805 -29.31,14.9843 -52.33,37.242 -69.05,66.773 -16.73,29.532 -25.09,65.582 -25.09,108.145 v 266.457 z m -502.63,0 V 406.16 H 3029.52 V 48.5 h -127.69 v 357.66 h -121.17 v 101.633 z m -475.95,0 V 48.5 H 2548.36 V 507.793 Z M 2016.89,48.5 1872.92,249.809 V 48.5 h -127.69 v 459.293 h 127.69 V 309.742 l 142.67,198.051 h 147.23 L 1994.09,284.988 2171.29,48.5 Z m -621.18,-4.5625 c -42.99,0 -82.52,10.1016 -118.57,30.3008 -36.05,20.1914 -64.6,48.2027 -85.67,84.0387 -21.06,35.828 -31.59,76.328 -31.59,121.496 0,45.168 10.53,85.672 31.59,121.504 21.07,35.832 49.63,63.735 85.67,83.711 36.05,19.981 75.58,29.973 118.57,29.973 43.43,0 83.06,-9.992 118.9,-29.973 35.83,-19.976 64.18,-47.879 85.02,-83.711 20.85,-35.832 31.27,-76.332 31.27,-121.504 0,-45.168 -10.42,-85.668 -31.27,-121.496 -20.84,-35.836 -49.3,-63.8473 -85.34,-84.0387 -36.06,-20.1992 -75.58,-30.3008 -118.58,-30.3008 z m 0,118.5705 c 32.58,0 58.31,10.64 77.2,31.926 18.9,21.277 28.34,49.726 28.34,85.339 0,36.485 -9.44,65.258 -28.34,86.325 -18.89,21.066 -44.62,31.593 -77.2,31.593 -33,0 -58.84,-10.527 -77.52,-31.593 -18.68,-21.067 -28.01,-49.84 -28.01,-86.325 0,-36.05 9.33,-64.601 28.01,-85.66 18.68,-21.066 44.52,-31.605 77.52,-31.605 z M 826.004,43.9375 c -43,0 -82.524,10.1016 -118.57,30.3008 -36.047,20.1914 -64.61,48.2027 -85.676,84.0387 -21.059,35.828 -31.59,76.328 -31.59,121.496 0,45.168 10.531,85.672 31.59,121.504 21.066,35.832 49.629,63.735 85.676,83.711 36.046,19.981 75.574,29.973 118.57,29.973 43.43,0 83.059,-9.992 118.887,-29.973 35.839,-19.976 64.179,-47.879 85.019,-83.711 20.85,-35.832 31.27,-76.332 31.27,-121.504 0,-45.168 -10.42,-85.668 -31.27,-121.496 C 1009.07,122.441 980.621,94.4297 944.57,74.2383 908.523,54.0391 869.004,43.9375 826.004,43.9375 Z m 0,118.5705 c 32.574,0 58.301,10.64 77.191,31.926 18.899,21.277 28.348,49.726 28.348,85.339 0,36.485 -9.449,65.258 -28.348,86.325 -18.89,21.066 -44.617,31.593 -77.191,31.593 -33.012,0 -58.852,-10.527 -77.527,-31.593 -18.676,-21.067 -28.008,-49.84 -28.008,-86.325 0,-36.05 9.332,-64.601 28.008,-85.66 18.675,-21.066 44.515,-31.605 77.527,-31.605 z M 39.3789,279.121 c 0,45.172 9.4492,85.453 28.3359,120.856 18.8985,35.394 45.7232,62.972 80.4652,82.738 34.746,19.762 74.703,29.633 119.867,29.633 57.336,0 105.543,-15.301 144.633,-45.922 39.09,-30.621 64.281,-72.207 75.57,-124.766 H 350.793 c -8.258,17.379 -19.656,30.625 -34.211,39.746 -14.547,9.117 -31.375,13.68 -50.484,13.68 -29.535,0 -53.102,-10.531 -70.688,-31.594 -17.59,-21.066 -26.383,-49.191 -26.383,-84.371 0,-35.613 8.793,-63.949 26.383,-85.008 17.594,-21.066 41.153,-31.605 70.688,-31.605 19.109,0 35.937,4.562 50.484,13.68 14.555,9.121 25.953,22.371 34.211,39.742 H 488.25 C 476.961,163.375 451.77,121.793 412.68,91.1758 373.59,60.5508 325.383,45.2422 268.047,45.2422 222.883,45.2422 182.926,55.125 148.18,74.8906 113.438,94.6484 86.6133,122.227 67.7148,157.629 48.8281,193.02 39.3789,233.523 39.3789,279.121" /></g></g></g></g></svg>